<svg xmlns="http://www.w3.org/2000/svg" width="163.16" height="174.815" viewBox="0 0 163.16 174.815">
  <g id="noun_Christmas_2095648" transform="translate(-5.827)">
    <g id="Grupo_54" data-name="Grupo 54" transform="translate(5.827)">
      <g id="Grupo_38" data-name="Grupo 38" transform="translate(58.272 69.926)">
        <path id="Trazado_58" data-name="Trazado 58" d="M74.444,128.889a52.444,52.444,0,1,1,52.444-52.444A52.6,52.6,0,0,1,74.444,128.889Zm0-99.062a46.617,46.617,0,1,0,46.617,46.617A46.754,46.754,0,0,0,74.444,29.827Z" transform="translate(-22 -24)" fill="#fff"/>
      </g>
      <g id="Grupo_39" data-name="Grupo 39" transform="translate(99.062 58.272)">
        <path id="Trazado_59" data-name="Trazado 59" d="M59.309,37.481H53.481V25.827H41.827V37.481H36V25.827A5.844,5.844,0,0,1,41.827,20H53.481a5.844,5.844,0,0,1,5.827,5.827Z" transform="translate(-36 -20)" fill="#fff"/>
      </g>
      <g id="Grupo_40" data-name="Grupo 40" transform="translate(0 78.667)">
        <path id="Trazado_60" data-name="Trazado 60" d="M42.79,108.58a40.79,40.79,0,1,1,0-81.58A40.344,40.344,0,0,1,73.674,41.277L69.3,45.064A34.635,34.635,0,0,0,42.79,32.827a34.963,34.963,0,1,0,0,69.926,33.441,33.441,0,0,0,24.474-10.2l4.079,4.079A39.186,39.186,0,0,1,42.79,108.58Z" transform="translate(-2 -27)" fill="#fff"/>
      </g>
      <g id="Grupo_41" data-name="Grupo 41" transform="translate(29.136 67.012)">
        <path id="Trazado_61" data-name="Trazado 61" d="M35.309,40.481H29.481V28.827H17.827V40.481H12V28.827A5.844,5.844,0,0,1,17.827,23H29.481a5.844,5.844,0,0,1,5.827,5.827Z" transform="translate(-12 -23)" fill="#fff"/>
      </g>
      <g id="Grupo_42" data-name="Grupo 42" transform="translate(37.877)">
        <rect id="Rectángulo_40" data-name="Rectángulo 40" width="6" height="70" transform="translate(0.296)" fill="#fff"/>
      </g>
      <g id="Grupo_43" data-name="Grupo 43" transform="translate(105.18 29.136)">
        <path id="Trazado_62" data-name="Trazado 62" d="M66.944,33.309c-9.323,0-24.183-8.741-24.765-9.032L38.1,21.654l4.079-2.622C42.762,18.741,57.621,10,66.944,10c7.284,0,14.568,4.079,14.568,11.654S74.228,33.309,66.944,33.309ZM49.754,21.654c5.244,2.622,12.528,5.827,17.19,5.827,2.914,0,8.741-1.165,8.741-5.827s-5.827-5.827-8.741-5.827C62.283,15.827,54.707,19.032,49.754,21.654Z" transform="translate(-38.1 -10)" fill="#fff"/>
      </g>
      <g id="Grupo_44" data-name="Grupo 44" transform="translate(107.802)">
        <rect id="Rectángulo_41" data-name="Rectángulo 41" width="5" height="61" transform="translate(0.37)" fill="#fff"/>
      </g>
      <g id="Grupo_45" data-name="Grupo 45" transform="translate(82.454 37.002)">
        <path id="Trazado_63" data-name="Trazado 63" d="M82.744,41.836,58.562,20.275,34.379,41.836,30.3,37.757,58.562,12.7,86.823,37.757Z" transform="translate(-30.3 -12.7)" fill="#fff"/>
      </g>
      <g id="Grupo_46" data-name="Grupo 46" transform="translate(72.84 29.136)">
        <path id="Trazado_64" data-name="Trazado 64" d="M41.568,33.309C34.284,33.309,27,29.23,27,21.654S34.284,10,41.568,10c9.323,0,24.183,8.741,24.765,9.032l4.079,2.622-4.079,2.622C65.751,24.568,50.891,33.309,41.568,33.309Zm0-17.481c-2.914,0-8.741,1.165-8.741,5.827s5.827,5.827,8.741,5.827c4.662,0,12.237-3.2,17.19-5.827C53.8,19.032,46.23,15.827,41.568,15.827Z" transform="translate(-27 -10)" fill="#fff"/>
      </g>
      <g id="Grupo_47" data-name="Grupo 47" transform="translate(11.654 90.321)">
        <path id="Trazado_65" data-name="Trazado 65" d="M11.827,60.136H6A29.221,29.221,0,0,1,35.136,31v5.827A23.377,23.377,0,0,0,11.827,60.136Z" transform="translate(-6 -31)" fill="#fff"/>
      </g>
      <g id="Grupo_48" data-name="Grupo 48" transform="translate(107.802 96.148)">
        <rect id="Rectángulo_42" data-name="Rectángulo 42" width="5" height="53" transform="translate(0.37 -0.148)" fill="#fff"/>
      </g>
      <g id="Grupo_49" data-name="Grupo 49" transform="translate(97.022 99.936)">
        <path id="Trazado_66" data-name="Trazado 66" d="M48.994,52.073,35.3,38.379,39.379,34.3l9.615,9.615L58.609,34.3l4.079,4.079Z" transform="translate(-35.3 -34.3)" fill="#fff"/>
      </g>
      <g id="Grupo_50" data-name="Grupo 50" transform="translate(97.022 127.032)">
        <path id="Trazado_67" data-name="Trazado 67" d="M58.609,61.373l-9.615-9.615-9.615,9.615L35.3,57.294,48.994,43.6,62.688,57.294Z" transform="translate(-35.3 -43.6)" fill="#fff"/>
      </g>
      <g id="Grupo_51" data-name="Grupo 51" transform="translate(84.494 119.457)">
        <rect id="Rectángulo_43" data-name="Rectángulo 43" width="53" height="6" transform="translate(-0.321 -0.457)" fill="#fff"/>
      </g>
      <g id="Grupo_52" data-name="Grupo 52" transform="translate(115.378 108.677)">
        <path id="Trazado_68" data-name="Trazado 68" d="M55.294,64.688,41.6,50.994,55.294,37.3l4.079,4.079-9.615,9.615,9.615,9.615Z" transform="translate(-41.6 -37.3)" fill="#fff"/>
      </g>
      <g id="Grupo_53" data-name="Grupo 53" transform="translate(88.281 108.677)">
        <path id="Trazado_69" data-name="Trazado 69" d="M36.379,64.688,32.3,60.609l9.615-9.615L32.3,41.379,36.379,37.3,50.073,50.994Z" transform="translate(-32.3 -37.3)" fill="#fff"/>
      </g>
    </g>
  </g>
</svg>
