<svg xmlns="http://www.w3.org/2000/svg" width="263.098" height="320.484" viewBox="0 0 263.098 320.484">
  <g id="noun_Christmas_1994633" transform="translate(-0.001)">
    <g id="Grupo_55" data-name="Grupo 55">
      <path id="Trazado_70" data-name="Trazado 70" d="M218.22,189.49l43.309,58.467c-70.376,40.06-175.4,38.978-242.528,0L61.226,189.49A129.261,129.261,0,0,1,43.9,180.828L89.376,120.2c-5.414-2.165-9.744-4.331-15.158-6.5L140.264,26l64.963,87.7c-4.331,2.165-9.744,4.331-14.075,6.5l44.391,60.632C230.129,184.076,224.716,187.324,218.22,189.49Zm-49.8,0c8.662,0,15.158,6.5,15.158,14.075s-6.5,14.075-15.158,14.075a14.075,14.075,0,1,1,0-28.151Zm-46.557-27.068a6.241,6.241,0,0,1,6.5,6.5,6.986,6.986,0,0,1-6.5,6.5c-4.331,0-7.579-3.248-7.579-6.5C114.279,164.587,117.527,162.422,121.858,162.422Zm30.316-50.888a11.91,11.91,0,1,1-11.91,11.91A12.016,12.016,0,0,1,152.174,111.534Z" transform="translate(1.572 2.151)" fill="#fff" fill-rule="evenodd"/>
      <path id="Trazado_71" data-name="Trazado 71" d="M102,239h61.715v45.474a15.945,15.945,0,0,1-16.241,16.241H118.241A15.945,15.945,0,0,1,102,284.474Z" transform="translate(274.152 559.484) rotate(180)" fill="#fff" fill-rule="evenodd"/>
      <circle id="Elipse_9" data-name="Elipse 9" cx="8.5" cy="8.5" r="8.5" transform="translate(37.001 94.812)" fill="#fff"/>
      <ellipse id="Elipse_10" data-name="Elipse 10" cx="6.5" cy="6" rx="6.5" ry="6" transform="translate(37.001 152.812)" fill="#fff"/>
      <ellipse id="Elipse_11" data-name="Elipse 11" cx="12" cy="12.5" rx="12" ry="12.5" transform="translate(0.001 187.812)" fill="#fff"/>
      <ellipse id="Elipse_12" data-name="Elipse 12" cx="8.5" cy="9" rx="8.5" ry="9" transform="translate(226.001 72.812)" fill="#fff"/>
      <ellipse id="Elipse_13" data-name="Elipse 13" cx="7.5" cy="6" rx="7.5" ry="6" transform="translate(226.001 129.812)" fill="#fff"/>
      <path id="Trazado_72" data-name="Trazado 72" d="M132.489,0l4.331,14.075h15.158l-11.91,8.662L144.4,35.73l-11.91-8.662-11.91,8.662,4.331-12.993L113,14.075h15.158Z" transform="translate(9.347)" fill="#fff" fill-rule="evenodd"/>
    </g>
  </g>
</svg>
