<svg xmlns="http://www.w3.org/2000/svg" width="20.651" height="21.499" viewBox="0 0 20.651 21.499">
  <g id="noun_Gift_3665184" transform="translate(-5.98 -4.988)">
    <path id="Trazado_57" data-name="Trazado 57" d="M7.046,13.711h.589V25.205a1.284,1.284,0,0,0,1.281,1.281H23.691a1.284,1.284,0,0,0,1.281-1.281V13.711h.593a1.067,1.067,0,0,0,1.066-1.07V10.212a1.066,1.066,0,0,0-1.066-1.066H21.326a1.485,1.485,0,0,0,.529-.628c.267-.641-.034-1.4-.89-2.257a1.574,1.574,0,0,0-1.35-.477c-1.328.181-2.665,1.977-3.31,2.966-.744-1.165-2.429-3.521-4.092-3.744a1.813,1.813,0,0,0-1.578.559C9.6,6.6,9.247,7.478,9.561,8.234a1.884,1.884,0,0,0,.9.907H7.046A1.066,1.066,0,0,0,5.98,10.207v2.429A1.065,1.065,0,0,0,7.046,13.711Zm7.338,11.916H8.916a.422.422,0,0,1-.421-.421V13.711h5.889Zm2.983,0H15.239V13.711h2.128Zm6.749-.421a.422.422,0,0,1-.421.421H18.227V13.711h5.885V25.205Zm1.449-15.2a.206.206,0,0,1,.206.206V12.64a.21.21,0,0,1-.206.211H19.186V10.005ZM19.732,6.639a.835.835,0,0,1,.1-.009.7.7,0,0,1,.52.241c.572.572.821,1.04.7,1.32s-.726.864-3.976.946C17.81,8.045,18.911,6.751,19.732,6.639Zm-1.406,3.366v2.846H14.285V10.005Zm-7.97-2.093c-.159-.387.155-1,.89-1.732a.959.959,0,0,1,.709-.327c.047,0,.095,0,.146.009,1.174.159,2.635,2.05,3.43,3.276C11.3,9.055,10.5,8.26,10.356,7.912Zm-3.521,2.3a.206.206,0,0,1,.206-.206h6.384v2.846H7.046a.207.207,0,0,1-.206-.211V10.216Z" fill="#ff5e8d"/>
  </g>
</svg>
